<?xml version="1.0" encoding="UTF-8" standalone="no"?>
<!DOCTYPE svg PUBLIC "-//W3C//DTD SVG 1.1//EN"
 "http://www.w3.org/Graphics/SVG/1.1/DTD/svg11.dtd">
<!-- Generated by graphviz version 2.40.1 (20161225.0304)
 -->
<!-- Title: dependencies Pages: 1 -->
<svg width="572pt" height="276pt"
 viewBox="0.00 0.00 572.00 276.00" xmlns="http://www.w3.org/2000/svg" xmlns:xlink="http://www.w3.org/1999/xlink">
<g id="graph0" class="graph" transform="scale(1 1) rotate(0) translate(4 272)">
<title>dependencies</title>
<polygon fill="#ffffff" stroke="transparent" points="-4,4 -4,-272 568,-272 568,4 -4,4"/>
<text text-anchor="start" x="261.0091" y="-42.4" font-family="sans-serif" font-weight="bold" font-size="14.00" fill="#000000">Legend</text>
<polygon fill="#ffffb3" stroke="transparent" points="48,-10 48,-30 68,-30 68,-10 48,-10"/>
<text text-anchor="start" x="71.629" y="-15.4" font-family="sans-serif" font-size="14.00" fill="#000000"> &#160;Declarations</text>
<polygon fill="#8dd3c7" stroke="transparent" points="161,-10 161,-30 181,-30 181,-10 161,-10"/>
<text text-anchor="start" x="184.7251" y="-15.4" font-family="sans-serif" font-size="14.00" fill="#000000"> &#160;Module</text>
<polygon fill="#80b1d3" stroke="transparent" points="247,-10 247,-30 267,-30 267,-10 247,-10"/>
<text text-anchor="start" x="270.7812" y="-15.4" font-family="sans-serif" font-size="14.00" fill="#000000"> &#160;Bootstrap</text>
<polygon fill="#fdb462" stroke="transparent" points="344,-10 344,-30 364,-30 364,-10 344,-10"/>
<text text-anchor="start" x="367.6732" y="-15.4" font-family="sans-serif" font-size="14.00" fill="#000000"> &#160;Providers</text>
<polygon fill="#fb8072" stroke="transparent" points="440,-10 440,-30 460,-30 460,-10 440,-10"/>
<text text-anchor="start" x="463.7258" y="-15.4" font-family="sans-serif" font-size="14.00" fill="#000000"> &#160;Exports</text>
<g id="clust1" class="cluster">
<title>cluster_DictionaryModule</title>
<polygon fill="none" stroke="#000000" stroke-dasharray="1,5" points="8,-70 8,-260 556,-260 556,-70 8,-70"/>
</g>
<g id="clust2" class="cluster">
<title>cluster_DictionaryModule_declarations</title>
<polygon fill="none" stroke="#000000" points="390,-143 390,-195 548,-195 548,-143 390,-143"/>
</g>
<g id="clust3" class="cluster">
<title>cluster_DictionaryModule_DictionaryComponent_providers</title>
<polygon fill="none" stroke="#000000" points="340,-78 340,-130 548,-130 548,-78 340,-78"/>
</g>
<g id="clust4" class="cluster">
<title>cluster_DictionaryModule_imports</title>
<polygon fill="none" stroke="#000000" points="202,-143 202,-195 382,-195 382,-143 202,-143"/>
</g>
<g id="clust7" class="cluster">
<title>cluster_DictionaryModule_providers</title>
<polygon fill="none" stroke="#000000" points="16,-143 16,-195 194,-195 194,-143 16,-143"/>
</g>
<!-- DictionaryComponent -->
<g id="node1" class="node">
<title>DictionaryComponent</title>
<polygon fill="#ffffb3" stroke="#000000" points="539.7007,-187 398.2993,-187 398.2993,-151 539.7007,-151 539.7007,-187"/>
<text text-anchor="middle" x="469" y="-164.8" font-family="Times,serif" font-size="14.00" fill="#000000">DictionaryComponent</text>
</g>
<!-- DictionaryModule -->
<g id="node2" class="node">
<title>DictionaryModule</title>
<polygon fill="#8dd3c7" stroke="#000000" points="351.9187,-252 348.9187,-256 327.9187,-256 324.9187,-252 232.0813,-252 232.0813,-216 351.9187,-216 351.9187,-252"/>
<text text-anchor="middle" x="292" y="-229.8" font-family="Times,serif" font-size="14.00" fill="#000000">DictionaryModule</text>
</g>
<!-- DictionaryComponent&#45;&gt;DictionaryModule -->
<g id="edge1" class="edge">
<title>DictionaryComponent&#45;&gt;DictionaryModule</title>
<path fill="none" stroke="#000000" d="M469,-187.1061C469,-206.3391 469,-234 469,-234 469,-234 361.9241,-234 361.9241,-234"/>
<polygon fill="#000000" stroke="#000000" points="361.9242,-230.5001 351.9241,-234 361.9241,-237.5001 361.9242,-230.5001"/>
</g>
<!-- NgbPaginationConfig -->
<g id="node3" class="node">
<title>NgbPaginationConfig</title>
<ellipse fill="#fdb462" stroke="#000000" cx="444" cy="-104" rx="95.5915" ry="18"/>
<text text-anchor="middle" x="444" y="-99.8" font-family="Times,serif" font-size="14.00" fill="#000000">NgbPaginationConfig</text>
</g>
<!-- NgbPaginationConfig&#45;&gt;DictionaryComponent -->
<g id="edge2" class="edge">
<title>NgbPaginationConfig&#45;&gt;DictionaryComponent</title>
<path fill="none" stroke="#000000" d="M469,-121.4188C469,-121.4188 469,-140.6234 469,-140.6234"/>
<polygon fill="#000000" stroke="#000000" points="465.5001,-140.6234 469,-150.6234 472.5001,-140.6234 465.5001,-140.6234"/>
</g>
<!-- DictionaryRoutingModule -->
<g id="node4" class="node">
<title>DictionaryRoutingModule</title>
<polygon fill="#8dd3c7" stroke="#000000" points="374.0365,-187 371.0365,-191 350.0365,-191 347.0365,-187 209.9635,-187 209.9635,-151 374.0365,-151 374.0365,-187"/>
<text text-anchor="middle" x="292" y="-164.8" font-family="Times,serif" font-size="14.00" fill="#000000">DictionaryRoutingModule</text>
</g>
<!-- DictionaryRoutingModule&#45;&gt;DictionaryModule -->
<g id="edge3" class="edge">
<title>DictionaryRoutingModule&#45;&gt;DictionaryModule</title>
<path fill="none" stroke="#000000" d="M292,-187.1061C292,-187.1061 292,-205.991 292,-205.991"/>
<polygon fill="#000000" stroke="#000000" points="288.5001,-205.9909 292,-215.991 295.5001,-205.991 288.5001,-205.9909"/>
</g>
<!-- WordsListService -->
<g id="node5" class="node">
<title>WordsListService</title>
<ellipse fill="#fdb462" stroke="#000000" cx="105" cy="-169" rx="80.5142" ry="18"/>
<text text-anchor="middle" x="105" y="-164.8" font-family="Times,serif" font-size="14.00" fill="#000000">WordsListService</text>
</g>
<!-- WordsListService&#45;&gt;DictionaryModule -->
<g id="edge4" class="edge">
<title>WordsListService&#45;&gt;DictionaryModule</title>
<path fill="none" stroke="#000000" d="M105,-187.1061C105,-206.3391 105,-234 105,-234 105,-234 222.0604,-234 222.0604,-234"/>
<polygon fill="#000000" stroke="#000000" points="222.0605,-237.5001 232.0604,-234 222.0604,-230.5001 222.0605,-237.5001"/>
</g>
</g>
</svg>
