<?xml version="1.0" encoding="UTF-8" standalone="no"?>
<!DOCTYPE svg PUBLIC "-//W3C//DTD SVG 1.1//EN"
 "http://www.w3.org/Graphics/SVG/1.1/DTD/svg11.dtd">
<!-- Generated by graphviz version 2.40.1 (20161225.0304)
 -->
<!-- Title: dependencies Pages: 1 -->
<svg width="504pt" height="349pt"
 viewBox="0.00 0.00 504.00 349.00" xmlns="http://www.w3.org/2000/svg" xmlns:xlink="http://www.w3.org/1999/xlink">
<g id="graph0" class="graph" transform="scale(1 1) rotate(0) translate(4 345)">
<title>dependencies</title>
<polygon fill="#ffffff" stroke="transparent" points="-4,4 -4,-345 500,-345 500,4 -4,4"/>
<text text-anchor="start" x="227.0091" y="-42.4" font-family="sans-serif" font-weight="bold" font-size="14.00" fill="#000000">Legend</text>
<polygon fill="#ffffb3" stroke="transparent" points="14,-10 14,-30 34,-30 34,-10 14,-10"/>
<text text-anchor="start" x="37.629" y="-15.4" font-family="sans-serif" font-size="14.00" fill="#000000"> &#160;Declarations</text>
<polygon fill="#8dd3c7" stroke="transparent" points="127,-10 127,-30 147,-30 147,-10 127,-10"/>
<text text-anchor="start" x="150.7251" y="-15.4" font-family="sans-serif" font-size="14.00" fill="#000000"> &#160;Module</text>
<polygon fill="#80b1d3" stroke="transparent" points="213,-10 213,-30 233,-30 233,-10 213,-10"/>
<text text-anchor="start" x="236.7812" y="-15.4" font-family="sans-serif" font-size="14.00" fill="#000000"> &#160;Bootstrap</text>
<polygon fill="#fdb462" stroke="transparent" points="310,-10 310,-30 330,-30 330,-10 310,-10"/>
<text text-anchor="start" x="333.6732" y="-15.4" font-family="sans-serif" font-size="14.00" fill="#000000"> &#160;Providers</text>
<polygon fill="#fb8072" stroke="transparent" points="406,-10 406,-30 426,-30 426,-10 406,-10"/>
<text text-anchor="start" x="429.7258" y="-15.4" font-family="sans-serif" font-size="14.00" fill="#000000"> &#160;Exports</text>
<g id="clust1" class="cluster">
<title>cluster_AppModule</title>
<polygon fill="none" stroke="#000000" stroke-dasharray="1,5" points="37,-70 37,-333 459,-333 459,-70 37,-70"/>
</g>
<g id="clust2" class="cluster">
<title>cluster_AppModule_declarations</title>
<polygon fill="none" stroke="#000000" points="329,-143 329,-195 451,-195 451,-143 329,-143"/>
</g>
<g id="clust3" class="cluster">
<title>cluster_AppModule_AppComponent_providers</title>
<polygon fill="none" stroke="#000000" points="319,-78 319,-130 451,-130 451,-78 319,-78"/>
</g>
<g id="clust4" class="cluster">
<title>cluster_AppModule_imports</title>
<polygon fill="none" stroke="#000000" points="177,-143 177,-195 321,-195 321,-143 177,-143"/>
</g>
<g id="clust6" class="cluster">
<title>cluster_AppModule_bootstrap</title>
<polygon fill="none" stroke="#000000" points="187,-273 187,-325 311,-325 311,-273 187,-273"/>
</g>
<g id="clust7" class="cluster">
<title>cluster_AppModule_providers</title>
<polygon fill="none" stroke="#000000" points="45,-143 45,-195 169,-195 169,-143 45,-143"/>
</g>
<!-- AppComponent -->
<g id="node1" class="node">
<title>AppComponent</title>
<polygon fill="#ffffb3" stroke="#000000" points="442.9399,-187 337.0601,-187 337.0601,-151 442.9399,-151 442.9399,-187"/>
<text text-anchor="middle" x="390" y="-164.8" font-family="Times,serif" font-size="14.00" fill="#000000">AppComponent</text>
</g>
<!-- AppModule -->
<g id="node2" class="node">
<title>AppModule</title>
<polygon fill="#8dd3c7" stroke="#000000" points="290.6571,-252 287.6571,-256 266.6571,-256 263.6571,-252 207.3429,-252 207.3429,-216 290.6571,-216 290.6571,-252"/>
<text text-anchor="middle" x="249" y="-229.8" font-family="Times,serif" font-size="14.00" fill="#000000">AppModule</text>
</g>
<!-- AppComponent&#45;&gt;AppModule -->
<g id="edge1" class="edge">
<title>AppComponent&#45;&gt;AppModule</title>
<path fill="none" stroke="#000000" d="M390,-187.1061C390,-206.3391 390,-234 390,-234 390,-234 300.9229,-234 300.9229,-234"/>
<polygon fill="#000000" stroke="#000000" points="300.9229,-230.5001 290.9229,-234 300.9229,-237.5001 300.9229,-230.5001"/>
</g>
<!-- AppComponent  -->
<g id="node5" class="node">
<title>AppComponent </title>
<polygon fill="#80b1d3" stroke="#000000" points="303.439,-317 194.561,-317 194.561,-281 303.439,-281 303.439,-317"/>
<text text-anchor="middle" x="249" y="-294.8" font-family="Times,serif" font-size="14.00" fill="#000000">AppComponent </text>
</g>
<!-- AppModule&#45;&gt;AppComponent  -->
<g id="edge4" class="edge">
<title>AppModule&#45;&gt;AppComponent </title>
<path fill="none" stroke="#000000" stroke-dasharray="1,5" d="M249,-252.1061C249,-252.1061 249,-270.991 249,-270.991"/>
<polygon fill="#000000" stroke="#000000" points="245.5001,-270.9909 249,-280.991 252.5001,-270.991 245.5001,-270.9909"/>
</g>
<!-- TextService -->
<g id="node3" class="node">
<title>TextService</title>
<ellipse fill="#fdb462" stroke="#000000" cx="385" cy="-104" rx="57.881" ry="18"/>
<text text-anchor="middle" x="385" y="-99.8" font-family="Times,serif" font-size="14.00" fill="#000000">TextService</text>
</g>
<!-- TextService&#45;&gt;AppComponent -->
<g id="edge2" class="edge">
<title>TextService&#45;&gt;AppComponent</title>
<path fill="none" stroke="#000000" d="M389.9853,-122.1061C389.9853,-122.1061 389.9853,-140.991 389.9853,-140.991"/>
<polygon fill="#000000" stroke="#000000" points="386.4854,-140.9909 389.9853,-150.991 393.4854,-140.991 386.4854,-140.9909"/>
</g>
<!-- AppRoutingModule -->
<g id="node4" class="node">
<title>AppRoutingModule</title>
<polygon fill="#8dd3c7" stroke="#000000" points="313.2744,-187 310.2744,-191 289.2744,-191 286.2744,-187 184.7256,-187 184.7256,-151 313.2744,-151 313.2744,-187"/>
<text text-anchor="middle" x="249" y="-164.8" font-family="Times,serif" font-size="14.00" fill="#000000">AppRoutingModule</text>
</g>
<!-- AppRoutingModule&#45;&gt;AppModule -->
<g id="edge3" class="edge">
<title>AppRoutingModule&#45;&gt;AppModule</title>
<path fill="none" stroke="#000000" d="M249,-187.1061C249,-187.1061 249,-205.991 249,-205.991"/>
<polygon fill="#000000" stroke="#000000" points="245.5001,-205.9909 249,-215.991 252.5001,-205.991 245.5001,-205.9909"/>
</g>
<!-- AuthGuard -->
<g id="node6" class="node">
<title>AuthGuard</title>
<ellipse fill="#fdb462" stroke="#000000" cx="107" cy="-169" rx="54.4566" ry="18"/>
<text text-anchor="middle" x="107" y="-164.8" font-family="Times,serif" font-size="14.00" fill="#000000">AuthGuard</text>
</g>
<!-- AuthGuard&#45;&gt;AppModule -->
<g id="edge5" class="edge">
<title>AuthGuard&#45;&gt;AppModule</title>
<path fill="none" stroke="#000000" d="M107,-187.1061C107,-206.3391 107,-234 107,-234 107,-234 197.1633,-234 197.1633,-234"/>
<polygon fill="#000000" stroke="#000000" points="197.1634,-237.5001 207.1633,-234 197.1633,-230.5001 197.1634,-237.5001"/>
</g>
</g>
</svg>
