<?xml version="1.0" encoding="UTF-8" standalone="no"?>
<!DOCTYPE svg PUBLIC "-//W3C//DTD SVG 1.1//EN"
 "http://www.w3.org/Graphics/SVG/1.1/DTD/svg11.dtd">
<!-- Generated by graphviz version 2.40.1 (20161225.0304)
 -->
<!-- Title: dependencies Pages: 1 -->
<svg width="6011pt" height="358pt"
 viewBox="0.00 0.00 6011.00 358.00" xmlns="http://www.w3.org/2000/svg" xmlns:xlink="http://www.w3.org/1999/xlink">
<g id="graph0" class="graph" transform="scale(1 1) rotate(0) translate(4 354)">
<title>dependencies</title>
<polygon fill="#ffffff" stroke="transparent" points="-4,4 -4,-354 6007,-354 6007,4 -4,4"/>
<text text-anchor="start" x="2980.5091" y="-42.4" font-family="sans-serif" font-weight="bold" font-size="14.00" fill="#000000">Legend</text>
<polygon fill="#ffffb3" stroke="transparent" points="2767.5,-10 2767.5,-30 2787.5,-30 2787.5,-10 2767.5,-10"/>
<text text-anchor="start" x="2791.129" y="-15.4" font-family="sans-serif" font-size="14.00" fill="#000000"> &#160;Declarations</text>
<polygon fill="#8dd3c7" stroke="transparent" points="2880.5,-10 2880.5,-30 2900.5,-30 2900.5,-10 2880.5,-10"/>
<text text-anchor="start" x="2904.2251" y="-15.4" font-family="sans-serif" font-size="14.00" fill="#000000"> &#160;Module</text>
<polygon fill="#80b1d3" stroke="transparent" points="2966.5,-10 2966.5,-30 2986.5,-30 2986.5,-10 2966.5,-10"/>
<text text-anchor="start" x="2990.2812" y="-15.4" font-family="sans-serif" font-size="14.00" fill="#000000"> &#160;Bootstrap</text>
<polygon fill="#fdb462" stroke="transparent" points="3063.5,-10 3063.5,-30 3083.5,-30 3083.5,-10 3063.5,-10"/>
<text text-anchor="start" x="3087.1732" y="-15.4" font-family="sans-serif" font-size="14.00" fill="#000000"> &#160;Providers</text>
<polygon fill="#fb8072" stroke="transparent" points="3159.5,-10 3159.5,-30 3179.5,-30 3179.5,-10 3159.5,-10"/>
<text text-anchor="start" x="3183.2258" y="-15.4" font-family="sans-serif" font-size="14.00" fill="#000000"> &#160;Exports</text>
<g id="clust1" class="cluster">
<title>cluster_AppModule</title>
<polygon fill="none" stroke="#000000" stroke-dasharray="1,5" points="304,-70 304,-342 726,-342 726,-70 304,-70"/>
</g>
<g id="clust2" class="cluster">
<title>cluster_AppModule_declarations</title>
<polygon fill="none" stroke="#000000" points="596,-146 596,-198 718,-198 718,-146 596,-146"/>
</g>
<g id="clust3" class="cluster">
<title>cluster_AppModule_AppComponent_providers</title>
<polygon fill="none" stroke="#000000" points="586,-78 586,-130 718,-130 718,-78 586,-78"/>
</g>
<g id="clust4" class="cluster">
<title>cluster_AppModule_imports</title>
<polygon fill="none" stroke="#000000" points="444,-146 444,-198 588,-198 588,-146 444,-146"/>
</g>
<g id="clust6" class="cluster">
<title>cluster_AppModule_bootstrap</title>
<polygon fill="none" stroke="#000000" points="454,-282 454,-334 578,-334 578,-282 454,-282"/>
</g>
<g id="clust7" class="cluster">
<title>cluster_AppModule_providers</title>
<polygon fill="none" stroke="#000000" points="312,-146 312,-198 436,-198 436,-146 312,-146"/>
</g>
<g id="clust14" class="cluster">
<title>cluster_BlankPageModule</title>
<polygon fill="none" stroke="#000000" stroke-dasharray="1,5" points="1642,-70 1642,-198 2006,-198 2006,-70 1642,-70"/>
</g>
<g id="clust15" class="cluster">
<title>cluster_BlankPageModule_declarations</title>
<polygon fill="none" stroke="#000000" points="1840,-78 1840,-130 1998,-130 1998,-78 1840,-78"/>
</g>
<g id="clust17" class="cluster">
<title>cluster_BlankPageModule_imports</title>
<polygon fill="none" stroke="#000000" points="1650,-78 1650,-130 1832,-130 1832,-78 1650,-78"/>
</g>
<g id="clust27" class="cluster">
<title>cluster_DashboardModule</title>
<polygon fill="none" stroke="#000000" stroke-dasharray="1,5" points="2014,-70 2014,-198 2477,-198 2477,-70 2014,-70"/>
</g>
<g id="clust28" class="cluster">
<title>cluster_DashboardModule_declarations</title>
<polygon fill="none" stroke="#000000" points="2022,-78 2022,-130 2180,-130 2180,-78 2022,-78"/>
</g>
<g id="clust30" class="cluster">
<title>cluster_DashboardModule_imports</title>
<polygon fill="none" stroke="#000000" points="2188,-78 2188,-130 2469,-130 2469,-78 2188,-78"/>
</g>
<g id="clust40" class="cluster">
<title>cluster_DictionaryModule</title>
<polygon fill="none" stroke="#000000" stroke-dasharray="1,5" points="2759,-70 2759,-266 3307,-266 3307,-70 2759,-70"/>
</g>
<g id="clust41" class="cluster">
<title>cluster_DictionaryModule_declarations</title>
<polygon fill="none" stroke="#000000" points="3141,-146 3141,-198 3299,-198 3299,-146 3141,-146"/>
</g>
<g id="clust42" class="cluster">
<title>cluster_DictionaryModule_DictionaryComponent_providers</title>
<polygon fill="none" stroke="#000000" points="3091,-78 3091,-130 3299,-130 3299,-78 3091,-78"/>
</g>
<g id="clust43" class="cluster">
<title>cluster_DictionaryModule_imports</title>
<polygon fill="none" stroke="#000000" points="2953,-146 2953,-198 3133,-198 3133,-146 2953,-146"/>
</g>
<g id="clust46" class="cluster">
<title>cluster_DictionaryModule_providers</title>
<polygon fill="none" stroke="#000000" points="2767,-146 2767,-198 2945,-198 2945,-146 2767,-146"/>
</g>
<g id="clust53" class="cluster">
<title>cluster_DocModule</title>
<polygon fill="none" stroke="#000000" stroke-dasharray="1,5" points="8,-70 8,-198 296,-198 296,-70 8,-70"/>
</g>
<g id="clust54" class="cluster">
<title>cluster_DocModule_declarations</title>
<polygon fill="none" stroke="#000000" points="168,-78 168,-130 288,-130 288,-78 168,-78"/>
</g>
<g id="clust56" class="cluster">
<title>cluster_DocModule_imports</title>
<polygon fill="none" stroke="#000000" points="16,-78 16,-130 160,-130 160,-78 16,-78"/>
</g>
<g id="clust66" class="cluster">
<title>cluster_EnhancedTextResultModule</title>
<polygon fill="none" stroke="#000000" stroke-dasharray="1,5" points="3315,-70 3315,-198 3975,-198 3975,-70 3315,-70"/>
</g>
<g id="clust67" class="cluster">
<title>cluster_EnhancedTextResultModule_declarations</title>
<polygon fill="none" stroke="#000000" points="3753,-78 3753,-130 3967,-130 3967,-78 3753,-78"/>
</g>
<g id="clust69" class="cluster">
<title>cluster_EnhancedTextResultModule_imports</title>
<polygon fill="none" stroke="#000000" points="3507,-78 3507,-130 3745,-130 3745,-78 3507,-78"/>
</g>
<g id="clust72" class="cluster">
<title>cluster_EnhancedTextResultModule_providers</title>
<polygon fill="none" stroke="#000000" points="3323,-78 3323,-130 3499,-130 3499,-78 3323,-78"/>
</g>
<g id="clust79" class="cluster">
<title>cluster_ImageModule</title>
<polygon fill="none" stroke="#000000" stroke-dasharray="1,5" points="734,-70 734,-198 1046,-198 1046,-70 734,-70"/>
</g>
<g id="clust80" class="cluster">
<title>cluster_ImageModule_declarations</title>
<polygon fill="none" stroke="#000000" points="906,-78 906,-130 1038,-130 1038,-78 906,-78"/>
</g>
<g id="clust82" class="cluster">
<title>cluster_ImageModule_imports</title>
<polygon fill="none" stroke="#000000" points="742,-78 742,-130 898,-130 898,-78 742,-78"/>
</g>
<g id="clust92" class="cluster">
<title>cluster_LayoutModule</title>
<polygon fill="none" stroke="#000000" stroke-dasharray="1,5" points="3983,-70 3983,-198 4721,-198 4721,-70 3983,-70"/>
</g>
<g id="clust93" class="cluster">
<title>cluster_LayoutModule_declarations</title>
<polygon fill="none" stroke="#000000" points="4159,-78 4159,-130 4713,-130 4713,-78 4159,-78"/>
</g>
<g id="clust98" class="cluster">
<title>cluster_LayoutModule_imports</title>
<polygon fill="none" stroke="#000000" points="3991,-78 3991,-130 4151,-130 4151,-78 3991,-78"/>
</g>
<g id="clust108" class="cluster">
<title>cluster_LoginModule</title>
<polygon fill="none" stroke="#000000" stroke-dasharray="1,5" points="4729,-70 4729,-198 5037,-198 5037,-70 4729,-70"/>
</g>
<g id="clust109" class="cluster">
<title>cluster_LoginModule_declarations</title>
<polygon fill="none" stroke="#000000" points="4899,-78 4899,-130 5029,-130 5029,-78 4899,-78"/>
</g>
<g id="clust111" class="cluster">
<title>cluster_LoginModule_imports</title>
<polygon fill="none" stroke="#000000" points="4737,-78 4737,-130 4891,-130 4891,-78 4737,-78"/>
</g>
<g id="clust121" class="cluster">
<title>cluster_NotFoundModule</title>
<polygon fill="none" stroke="#000000" stroke-dasharray="1,5" points="5045,-70 5045,-198 5401,-198 5401,-70 5045,-70"/>
</g>
<g id="clust122" class="cluster">
<title>cluster_NotFoundModule_declarations</title>
<polygon fill="none" stroke="#000000" points="5239,-78 5239,-130 5393,-130 5393,-78 5239,-78"/>
</g>
<g id="clust124" class="cluster">
<title>cluster_NotFoundModule_imports</title>
<polygon fill="none" stroke="#000000" points="5053,-78 5053,-130 5231,-130 5231,-78 5053,-78"/>
</g>
<g id="clust134" class="cluster">
<title>cluster_PageHeaderModule</title>
<polygon fill="none" stroke="#000000" stroke-dasharray="1,5" points="5409,-70 5409,-274 5593,-274 5593,-70 5409,-70"/>
</g>
<g id="clust135" class="cluster">
<title>cluster_PageHeaderModule_declarations</title>
<polygon fill="none" stroke="#000000" points="5419,-78 5419,-130 5583,-130 5583,-78 5419,-78"/>
</g>
<g id="clust138" class="cluster">
<title>cluster_PageHeaderModule_exports</title>
<polygon fill="none" stroke="#000000" points="5417,-214 5417,-266 5585,-266 5585,-214 5417,-214"/>
</g>
<g id="clust141" class="cluster">
<title>cluster_PdfModule</title>
<polygon fill="none" stroke="#000000" stroke-dasharray="1,5" points="1054,-70 1054,-198 1334,-198 1334,-70 1054,-70"/>
</g>
<g id="clust142" class="cluster">
<title>cluster_PdfModule_declarations</title>
<polygon fill="none" stroke="#000000" points="1210,-78 1210,-130 1326,-130 1326,-78 1210,-78"/>
</g>
<g id="clust144" class="cluster">
<title>cluster_PdfModule_imports</title>
<polygon fill="none" stroke="#000000" points="1062,-78 1062,-130 1202,-130 1202,-78 1062,-78"/>
</g>
<g id="clust160" class="cluster">
<title>cluster_StatModule</title>
<polygon fill="none" stroke="#000000" stroke-dasharray="1,5" points="2485,-138 2485,-206 2751,-206 2751,-138 2485,-138"/>
</g>
<g id="clust161" class="cluster">
<title>cluster_StatModule_declarations</title>
<polygon fill="none" stroke="#000000" points="2623,-146 2623,-198 2743,-198 2743,-146 2623,-146"/>
</g>
<g id="clust164" class="cluster">
<title>cluster_StatModule_exports</title>
<polygon fill="none" stroke="#000000" points="2493,-146 2493,-198 2615,-198 2615,-146 2493,-146"/>
</g>
<g id="clust167" class="cluster">
<title>cluster_TextModule</title>
<polygon fill="none" stroke="#000000" stroke-dasharray="1,5" points="1342,-70 1342,-198 1634,-198 1634,-70 1342,-70"/>
</g>
<g id="clust168" class="cluster">
<title>cluster_TextModule_declarations</title>
<polygon fill="none" stroke="#000000" points="1504,-78 1504,-130 1626,-130 1626,-78 1504,-78"/>
</g>
<g id="clust170" class="cluster">
<title>cluster_TextModule_imports</title>
<polygon fill="none" stroke="#000000" points="1350,-78 1350,-130 1496,-130 1496,-78 1350,-78"/>
</g>
<g id="clust180" class="cluster">
<title>cluster_TextStatisticsModule</title>
<polygon fill="none" stroke="#000000" stroke-dasharray="1,5" points="5601,-70 5601,-198 5995,-198 5995,-70 5601,-70"/>
</g>
<g id="clust181" class="cluster">
<title>cluster_TextStatisticsModule_declarations</title>
<polygon fill="none" stroke="#000000" points="5813,-78 5813,-130 5987,-130 5987,-78 5813,-78"/>
</g>
<g id="clust183" class="cluster">
<title>cluster_TextStatisticsModule_imports</title>
<polygon fill="none" stroke="#000000" points="5609,-78 5609,-130 5805,-130 5805,-78 5609,-78"/>
</g>
<!-- AppComponent -->
<g id="node1" class="node">
<title>AppComponent</title>
<polygon fill="#ffffb3" stroke="#000000" points="709.9399,-190 604.0601,-190 604.0601,-154 709.9399,-154 709.9399,-190"/>
<text text-anchor="middle" x="657" y="-167.8" font-family="Times,serif" font-size="14.00" fill="#000000">AppComponent</text>
</g>
<!-- AppModule -->
<g id="node2" class="node">
<title>AppModule</title>
<polygon fill="#8dd3c7" stroke="#000000" points="557.6571,-258 554.6571,-262 533.6571,-262 530.6571,-258 474.3429,-258 474.3429,-222 557.6571,-222 557.6571,-258"/>
<text text-anchor="middle" x="516" y="-235.8" font-family="Times,serif" font-size="14.00" fill="#000000">AppModule</text>
</g>
<!-- AppComponent&#45;&gt;AppModule -->
<g id="edge1" class="edge">
<title>AppComponent&#45;&gt;AppModule</title>
<path fill="none" stroke="#000000" d="M657,-190.2921C657,-212.2057 657,-246 657,-246 657,-246 567.9229,-246 567.9229,-246"/>
<polygon fill="#000000" stroke="#000000" points="567.9229,-242.5001 557.9229,-246 567.9229,-249.5001 567.9229,-242.5001"/>
</g>
<!-- AppComponent  -->
<g id="node5" class="node">
<title>AppComponent </title>
<polygon fill="#80b1d3" stroke="#000000" points="570.439,-326 461.561,-326 461.561,-290 570.439,-290 570.439,-326"/>
<text text-anchor="middle" x="516" y="-303.8" font-family="Times,serif" font-size="14.00" fill="#000000">AppComponent </text>
</g>
<!-- AppModule&#45;&gt;AppComponent  -->
<g id="edge4" class="edge">
<title>AppModule&#45;&gt;AppComponent </title>
<path fill="none" stroke="#000000" stroke-dasharray="1,5" d="M516,-258.2228C516,-258.2228 516,-279.7269 516,-279.7269"/>
<polygon fill="#000000" stroke="#000000" points="512.5001,-279.7269 516,-289.7269 519.5001,-279.727 512.5001,-279.7269"/>
</g>
<!-- TextService -->
<g id="node3" class="node">
<title>TextService</title>
<ellipse fill="#fdb462" stroke="#000000" cx="652" cy="-104" rx="57.881" ry="18"/>
<text text-anchor="middle" x="652" y="-99.8" font-family="Times,serif" font-size="14.00" fill="#000000">TextService</text>
</g>
<!-- TextService&#45;&gt;AppComponent -->
<g id="edge2" class="edge">
<title>TextService&#45;&gt;AppComponent</title>
<path fill="none" stroke="#000000" d="M630.6329,-120.809C630.6329,-120.809 630.6329,-143.9558 630.6329,-143.9558"/>
<polygon fill="#000000" stroke="#000000" points="627.133,-143.9557 630.6329,-153.9558 634.133,-143.9558 627.133,-143.9557"/>
</g>
<!-- DocModule -->
<g id="node20" class="node">
<title>DocModule</title>
<polygon fill="#8dd3c7" stroke="#000000" points="269.3711,-190 266.3711,-194 245.3711,-194 242.3711,-190 186.6289,-190 186.6289,-154 269.3711,-154 269.3711,-190"/>
<text text-anchor="middle" x="228" y="-167.8" font-family="Times,serif" font-size="14.00" fill="#000000">DocModule</text>
</g>
<!-- TextService&#45;&gt;DocModule -->
<g id="edge17" class="edge">
<title>TextService&#45;&gt;DocModule</title>
<path fill="none" stroke="#000000" d="M594.2561,-104C494.3732,-104 299.9243,-104 299.9243,-104 299.9243,-104 299.9243,-172 299.9243,-172 299.9243,-172 279.4219,-172 279.4219,-172"/>
<polygon fill="#000000" stroke="#000000" points="279.4219,-168.5001 269.4219,-172 279.4219,-175.5001 279.4219,-168.5001"/>
</g>
<!-- ImageModule -->
<g id="node27" class="node">
<title>ImageModule</title>
<polygon fill="#8dd3c7" stroke="#000000" points="867.0314,-190 864.0314,-194 843.0314,-194 840.0314,-190 772.9686,-190 772.9686,-154 867.0314,-154 867.0314,-190"/>
<text text-anchor="middle" x="820" y="-167.8" font-family="Times,serif" font-size="14.00" fill="#000000">ImageModule</text>
</g>
<!-- TextService&#45;&gt;ImageModule -->
<g id="edge23" class="edge">
<title>TextService&#45;&gt;ImageModule</title>
<path fill="none" stroke="#000000" d="M709.8743,-104C721.3544,-104 729.9478,-104 729.9478,-104 729.9478,-104 729.9478,-172 729.9478,-172 729.9478,-172 762.864,-172 762.864,-172"/>
<polygon fill="#000000" stroke="#000000" points="762.864,-175.5001 772.864,-172 762.8639,-168.5001 762.864,-175.5001"/>
</g>
<!-- PdfModule -->
<g id="node45" class="node">
<title>PdfModule</title>
<polygon fill="#8dd3c7" stroke="#000000" points="1171.493,-190 1168.493,-194 1147.493,-194 1144.493,-190 1092.507,-190 1092.507,-154 1171.493,-154 1171.493,-190"/>
<text text-anchor="middle" x="1132" y="-167.8" font-family="Times,serif" font-size="14.00" fill="#000000">PdfModule</text>
</g>
<!-- TextService&#45;&gt;PdfModule -->
<g id="edge37" class="edge">
<title>TextService&#45;&gt;PdfModule</title>
<path fill="none" stroke="#000000" d="M656.9853,-122.1274C656.9853,-132.7109 656.9853,-144 656.9853,-144 656.9853,-144 1118.8345,-144 1118.8345,-144 1118.8345,-144 1118.8345,-144.9793 1118.8345,-144.9793"/>
<polygon fill="#000000" stroke="#000000" points="1115.3346,-143.793 1118.8345,-153.793 1122.3346,-143.7931 1115.3346,-143.793"/>
</g>
<!-- TextModule -->
<g id="node50" class="node">
<title>TextModule</title>
<polygon fill="#8dd3c7" stroke="#000000" points="1465.7079,-190 1462.7079,-194 1441.7079,-194 1438.7079,-190 1380.2921,-190 1380.2921,-154 1465.7079,-154 1465.7079,-190"/>
<text text-anchor="middle" x="1423" y="-167.8" font-family="Times,serif" font-size="14.00" fill="#000000">TextModule</text>
</g>
<!-- TextService&#45;&gt;TextModule -->
<g id="edge42" class="edge">
<title>TextService&#45;&gt;TextModule</title>
<path fill="none" stroke="#000000" d="M683.3378,-119.1795C683.3378,-126.196 683.3378,-133 683.3378,-133 683.3378,-133 1408.7987,-133 1408.7987,-133 1408.7987,-133 1408.7987,-143.8701 1408.7987,-143.8701"/>
<polygon fill="#000000" stroke="#000000" points="1405.2988,-143.8701 1408.7987,-153.8701 1412.2988,-143.8701 1405.2988,-143.8701"/>
</g>
<!-- AppRoutingModule -->
<g id="node4" class="node">
<title>AppRoutingModule</title>
<polygon fill="#8dd3c7" stroke="#000000" points="580.2744,-190 577.2744,-194 556.2744,-194 553.2744,-190 451.7256,-190 451.7256,-154 580.2744,-154 580.2744,-190"/>
<text text-anchor="middle" x="516" y="-167.8" font-family="Times,serif" font-size="14.00" fill="#000000">AppRoutingModule</text>
</g>
<!-- AppRoutingModule&#45;&gt;AppModule -->
<g id="edge3" class="edge">
<title>AppRoutingModule&#45;&gt;AppModule</title>
<path fill="none" stroke="#000000" d="M516,-190.2228C516,-190.2228 516,-211.7269 516,-211.7269"/>
<polygon fill="#000000" stroke="#000000" points="512.5001,-211.7269 516,-221.7269 519.5001,-211.727 512.5001,-211.7269"/>
</g>
<!-- AuthGuard -->
<g id="node6" class="node">
<title>AuthGuard</title>
<ellipse fill="#fdb462" stroke="#000000" cx="374" cy="-172" rx="54.4566" ry="18"/>
<text text-anchor="middle" x="374" y="-167.8" font-family="Times,serif" font-size="14.00" fill="#000000">AuthGuard</text>
</g>
<!-- AuthGuard&#45;&gt;AppModule -->
<g id="edge5" class="edge">
<title>AuthGuard&#45;&gt;AppModule</title>
<path fill="none" stroke="#000000" d="M374,-190.2228C374,-210.3652 374,-240 374,-240 374,-240 464.1633,-240 464.1633,-240"/>
<polygon fill="#000000" stroke="#000000" points="464.1634,-243.5001 474.1633,-240 464.1633,-236.5001 464.1634,-243.5001"/>
</g>
<!-- BlankPageComponent -->
<g id="node7" class="node">
<title>BlankPageComponent</title>
<polygon fill="#ffffb3" stroke="#000000" points="1989.986,-122 1848.014,-122 1848.014,-86 1989.986,-86 1989.986,-122"/>
<text text-anchor="middle" x="1919" y="-99.8" font-family="Times,serif" font-size="14.00" fill="#000000">BlankPageComponent</text>
</g>
<!-- BlankPageModule -->
<g id="node8" class="node">
<title>BlankPageModule</title>
<polygon fill="#8dd3c7" stroke="#000000" points="1890.2036,-190 1887.2036,-194 1866.2036,-194 1863.2036,-190 1769.7964,-190 1769.7964,-154 1890.2036,-154 1890.2036,-190"/>
<text text-anchor="middle" x="1830" y="-167.8" font-family="Times,serif" font-size="14.00" fill="#000000">BlankPageModule</text>
</g>
<!-- BlankPageComponent&#45;&gt;BlankPageModule -->
<g id="edge6" class="edge">
<title>BlankPageComponent&#45;&gt;BlankPageModule</title>
<path fill="none" stroke="#000000" d="M1869.0544,-122.2228C1869.0544,-122.2228 1869.0544,-143.7269 1869.0544,-143.7269"/>
<polygon fill="#000000" stroke="#000000" points="1865.5544,-143.7269 1869.0544,-153.7269 1872.5544,-143.727 1865.5544,-143.7269"/>
</g>
<!-- BlankPageRoutingModule -->
<g id="node9" class="node">
<title>BlankPageRoutingModule</title>
<polygon fill="#8dd3c7" stroke="#000000" points="1823.8215,-122 1820.8215,-126 1799.8215,-126 1796.8215,-122 1658.1785,-122 1658.1785,-86 1823.8215,-86 1823.8215,-122"/>
<text text-anchor="middle" x="1741" y="-99.8" font-family="Times,serif" font-size="14.00" fill="#000000">BlankPageRoutingModule</text>
</g>
<!-- BlankPageRoutingModule&#45;&gt;BlankPageModule -->
<g id="edge7" class="edge">
<title>BlankPageRoutingModule&#45;&gt;BlankPageModule</title>
<path fill="none" stroke="#000000" d="M1796.7795,-122.2228C1796.7795,-122.2228 1796.7795,-143.7269 1796.7795,-143.7269"/>
<polygon fill="#000000" stroke="#000000" points="1793.2795,-143.7269 1796.7795,-153.7269 1800.2795,-143.727 1793.2795,-143.7269"/>
</g>
<!-- DashboardComponent -->
<g id="node10" class="node">
<title>DashboardComponent</title>
<polygon fill="#ffffb3" stroke="#000000" points="2171.9734,-122 2030.0266,-122 2030.0266,-86 2171.9734,-86 2171.9734,-122"/>
<text text-anchor="middle" x="2101" y="-99.8" font-family="Times,serif" font-size="14.00" fill="#000000">DashboardComponent</text>
</g>
<!-- DashboardModule -->
<g id="node11" class="node">
<title>DashboardModule</title>
<polygon fill="#8dd3c7" stroke="#000000" points="2339.191,-190 2336.191,-194 2315.191,-194 2312.191,-190 2218.809,-190 2218.809,-154 2339.191,-154 2339.191,-190"/>
<text text-anchor="middle" x="2279" y="-167.8" font-family="Times,serif" font-size="14.00" fill="#000000">DashboardModule</text>
</g>
<!-- DashboardComponent&#45;&gt;DashboardModule -->
<g id="edge8" class="edge">
<title>DashboardComponent&#45;&gt;DashboardModule</title>
<path fill="none" stroke="#000000" d="M2101,-122.2228C2101,-142.3652 2101,-172 2101,-172 2101,-172 2208.7373,-172 2208.7373,-172"/>
<polygon fill="#000000" stroke="#000000" points="2208.7374,-175.5001 2218.7373,-172 2208.7373,-168.5001 2208.7374,-175.5001"/>
</g>
<!-- DashboardRoutingModule -->
<g id="node12" class="node">
<title>DashboardRoutingModule</title>
<polygon fill="#8dd3c7" stroke="#000000" points="2361.8089,-122 2358.8089,-126 2337.8089,-126 2334.8089,-122 2196.1911,-122 2196.1911,-86 2361.8089,-86 2361.8089,-122"/>
<text text-anchor="middle" x="2279" y="-99.8" font-family="Times,serif" font-size="14.00" fill="#000000">DashboardRoutingModule</text>
</g>
<!-- DashboardRoutingModule&#45;&gt;DashboardModule -->
<g id="edge9" class="edge">
<title>DashboardRoutingModule&#45;&gt;DashboardModule</title>
<path fill="none" stroke="#000000" d="M2279,-122.2228C2279,-122.2228 2279,-143.7269 2279,-143.7269"/>
<polygon fill="#000000" stroke="#000000" points="2275.5001,-143.7269 2279,-153.7269 2282.5001,-143.727 2275.5001,-143.7269"/>
</g>
<!-- StatModule -->
<g id="node13" class="node">
<title>StatModule</title>
<polygon fill="#8dd3c7" stroke="#000000" points="2460.8289,-122 2457.8289,-126 2436.8289,-126 2433.8289,-122 2379.1711,-122 2379.1711,-86 2460.8289,-86 2460.8289,-122"/>
<text text-anchor="middle" x="2420" y="-99.8" font-family="Times,serif" font-size="14.00" fill="#000000">StatModule</text>
</g>
<!-- StatModule&#45;&gt;DashboardModule -->
<g id="edge10" class="edge">
<title>StatModule&#45;&gt;DashboardModule</title>
<path fill="none" stroke="#000000" d="M2406.4453,-122.2667C2406.4453,-140.5552 2406.4453,-166 2406.4453,-166 2406.4453,-166 2349.3637,-166 2349.3637,-166"/>
<polygon fill="#000000" stroke="#000000" points="2349.3637,-162.5001 2339.3637,-166 2349.3636,-169.5001 2349.3637,-162.5001"/>
</g>
<!-- StatComponent  -->
<g id="node48" class="node">
<title>StatComponent </title>
<polygon fill="#fb8072" stroke="#000000" points="2607.1115,-190 2500.8885,-190 2500.8885,-154 2607.1115,-154 2607.1115,-190"/>
<text text-anchor="middle" x="2554" y="-167.8" font-family="Times,serif" font-size="14.00" fill="#000000">StatComponent </text>
</g>
<!-- StatModule&#45;&gt;StatComponent  -->
<g id="edge39" class="edge">
<title>StatModule&#45;&gt;StatComponent </title>
<path fill="none" stroke="#000000" stroke-dasharray="5,2" d="M2433.5547,-122.2921C2433.5547,-144.2057 2433.5547,-178 2433.5547,-178 2433.5547,-178 2490.8203,-178 2490.8203,-178"/>
<polygon fill="#000000" stroke="#000000" points="2490.8204,-181.5001 2500.8203,-178 2490.8203,-174.5001 2490.8204,-181.5001"/>
</g>
<!-- DictionaryComponent -->
<g id="node14" class="node">
<title>DictionaryComponent</title>
<polygon fill="#ffffb3" stroke="#000000" points="3290.7007,-190 3149.2993,-190 3149.2993,-154 3290.7007,-154 3290.7007,-190"/>
<text text-anchor="middle" x="3220" y="-167.8" font-family="Times,serif" font-size="14.00" fill="#000000">DictionaryComponent</text>
</g>
<!-- DictionaryModule -->
<g id="node15" class="node">
<title>DictionaryModule</title>
<polygon fill="#8dd3c7" stroke="#000000" points="3102.9187,-258 3099.9187,-262 3078.9187,-262 3075.9187,-258 2983.0813,-258 2983.0813,-222 3102.9187,-222 3102.9187,-258"/>
<text text-anchor="middle" x="3043" y="-235.8" font-family="Times,serif" font-size="14.00" fill="#000000">DictionaryModule</text>
</g>
<!-- DictionaryComponent&#45;&gt;DictionaryModule -->
<g id="edge11" class="edge">
<title>DictionaryComponent&#45;&gt;DictionaryModule</title>
<path fill="none" stroke="#000000" d="M3220,-190.2228C3220,-210.3652 3220,-240 3220,-240 3220,-240 3112.9241,-240 3112.9241,-240"/>
<polygon fill="#000000" stroke="#000000" points="3112.9242,-236.5001 3102.9241,-240 3112.9241,-243.5001 3112.9242,-236.5001"/>
</g>
<!-- NgbPaginationConfig -->
<g id="node16" class="node">
<title>NgbPaginationConfig</title>
<ellipse fill="#fdb462" stroke="#000000" cx="3195" cy="-104" rx="95.5915" ry="18"/>
<text text-anchor="middle" x="3195" y="-99.8" font-family="Times,serif" font-size="14.00" fill="#000000">NgbPaginationConfig</text>
</g>
<!-- NgbPaginationConfig&#45;&gt;DictionaryComponent -->
<g id="edge12" class="edge">
<title>NgbPaginationConfig&#45;&gt;DictionaryComponent</title>
<path fill="none" stroke="#000000" d="M3220,-121.5117C3220,-121.5117 3220,-143.8359 3220,-143.8359"/>
<polygon fill="#000000" stroke="#000000" points="3216.5001,-143.8358 3220,-153.8359 3223.5001,-143.8359 3216.5001,-143.8358"/>
</g>
<!-- DictionaryRoutingModule -->
<g id="node17" class="node">
<title>DictionaryRoutingModule</title>
<polygon fill="#8dd3c7" stroke="#000000" points="3125.0365,-190 3122.0365,-194 3101.0365,-194 3098.0365,-190 2960.9635,-190 2960.9635,-154 3125.0365,-154 3125.0365,-190"/>
<text text-anchor="middle" x="3043" y="-167.8" font-family="Times,serif" font-size="14.00" fill="#000000">DictionaryRoutingModule</text>
</g>
<!-- DictionaryRoutingModule&#45;&gt;DictionaryModule -->
<g id="edge13" class="edge">
<title>DictionaryRoutingModule&#45;&gt;DictionaryModule</title>
<path fill="none" stroke="#000000" d="M3043,-190.2228C3043,-190.2228 3043,-211.7269 3043,-211.7269"/>
<polygon fill="#000000" stroke="#000000" points="3039.5001,-211.7269 3043,-221.7269 3046.5001,-211.727 3039.5001,-211.7269"/>
</g>
<!-- WordsListService -->
<g id="node18" class="node">
<title>WordsListService</title>
<ellipse fill="#fdb462" stroke="#000000" cx="2856" cy="-172" rx="80.5142" ry="18"/>
<text text-anchor="middle" x="2856" y="-167.8" font-family="Times,serif" font-size="14.00" fill="#000000">WordsListService</text>
</g>
<!-- WordsListService&#45;&gt;DictionaryModule -->
<g id="edge14" class="edge">
<title>WordsListService&#45;&gt;DictionaryModule</title>
<path fill="none" stroke="#000000" d="M2856,-190.2667C2856,-208.5552 2856,-234 2856,-234 2856,-234 2973.0604,-234 2973.0604,-234"/>
<polygon fill="#000000" stroke="#000000" points="2973.0605,-237.5001 2983.0604,-234 2973.0604,-230.5001 2973.0605,-237.5001"/>
</g>
<!-- DocComponent -->
<g id="node19" class="node">
<title>DocComponent</title>
<polygon fill="#ffffb3" stroke="#000000" points="280.1542,-122 175.8458,-122 175.8458,-86 280.1542,-86 280.1542,-122"/>
<text text-anchor="middle" x="228" y="-99.8" font-family="Times,serif" font-size="14.00" fill="#000000">DocComponent</text>
</g>
<!-- DocComponent&#45;&gt;DocModule -->
<g id="edge15" class="edge">
<title>DocComponent&#45;&gt;DocModule</title>
<path fill="none" stroke="#000000" d="M228,-122.2228C228,-122.2228 228,-143.7269 228,-143.7269"/>
<polygon fill="#000000" stroke="#000000" points="224.5001,-143.7269 228,-153.7269 231.5001,-143.727 224.5001,-143.7269"/>
</g>
<!-- DocRoutingModule -->
<g id="node21" class="node">
<title>DocRoutingModule</title>
<polygon fill="#8dd3c7" stroke="#000000" points="151.9888,-122 148.9888,-126 127.9888,-126 124.9888,-122 24.0112,-122 24.0112,-86 151.9888,-86 151.9888,-122"/>
<text text-anchor="middle" x="88" y="-99.8" font-family="Times,serif" font-size="14.00" fill="#000000">DocRoutingModule</text>
</g>
<!-- DocRoutingModule&#45;&gt;DocModule -->
<g id="edge16" class="edge">
<title>DocRoutingModule&#45;&gt;DocModule</title>
<path fill="none" stroke="#000000" d="M88,-122.2228C88,-142.3652 88,-172 88,-172 88,-172 176.3744,-172 176.3744,-172"/>
<polygon fill="#000000" stroke="#000000" points="176.3745,-175.5001 186.3744,-172 176.3744,-168.5001 176.3745,-175.5001"/>
</g>
<!-- EnhancedTextResultComponent -->
<g id="node22" class="node">
<title>EnhancedTextResultComponent</title>
<polygon fill="#ffffb3" stroke="#000000" points="3958.9636,-122 3761.0364,-122 3761.0364,-86 3958.9636,-86 3958.9636,-122"/>
<text text-anchor="middle" x="3860" y="-99.8" font-family="Times,serif" font-size="14.00" fill="#000000">EnhancedTextResultComponent</text>
</g>
<!-- EnhancedTextResultModule -->
<g id="node23" class="node">
<title>EnhancedTextResultModule</title>
<polygon fill="#8dd3c7" stroke="#000000" points="3714.1811,-190 3711.1811,-194 3690.1811,-194 3687.1811,-190 3537.8189,-190 3537.8189,-154 3714.1811,-154 3714.1811,-190"/>
<text text-anchor="middle" x="3626" y="-167.8" font-family="Times,serif" font-size="14.00" fill="#000000">EnhancedTextResultModule</text>
</g>
<!-- EnhancedTextResultComponent&#45;&gt;EnhancedTextResultModule -->
<g id="edge18" class="edge">
<title>EnhancedTextResultComponent&#45;&gt;EnhancedTextResultModule</title>
<path fill="none" stroke="#000000" d="M3860,-122.0225C3860,-139.3734 3860,-163 3860,-163 3860,-163 3724.1319,-163 3724.1319,-163"/>
<polygon fill="#000000" stroke="#000000" points="3724.132,-159.5001 3714.1319,-163 3724.1319,-166.5001 3724.132,-159.5001"/>
</g>
<!-- EnhancedTextResultRoutingModule -->
<g id="node24" class="node">
<title>EnhancedTextResultRoutingModule</title>
<polygon fill="#8dd3c7" stroke="#000000" points="3736.799,-122 3733.799,-126 3712.799,-126 3709.799,-122 3515.201,-122 3515.201,-86 3736.799,-86 3736.799,-122"/>
<text text-anchor="middle" x="3626" y="-99.8" font-family="Times,serif" font-size="14.00" fill="#000000">EnhancedTextResultRoutingModule</text>
</g>
<!-- EnhancedTextResultRoutingModule&#45;&gt;EnhancedTextResultModule -->
<g id="edge19" class="edge">
<title>EnhancedTextResultRoutingModule&#45;&gt;EnhancedTextResultModule</title>
<path fill="none" stroke="#000000" d="M3626,-122.2228C3626,-122.2228 3626,-143.7269 3626,-143.7269"/>
<polygon fill="#000000" stroke="#000000" points="3622.5001,-143.7269 3626,-153.7269 3629.5001,-143.727 3622.5001,-143.7269"/>
</g>
<!-- DefinitionService -->
<g id="node25" class="node">
<title>DefinitionService</title>
<ellipse fill="#fdb462" stroke="#000000" cx="3411" cy="-104" rx="79.8701" ry="18"/>
<text text-anchor="middle" x="3411" y="-99.8" font-family="Times,serif" font-size="14.00" fill="#000000">DefinitionService</text>
</g>
<!-- DefinitionService&#45;&gt;EnhancedTextResultModule -->
<g id="edge20" class="edge">
<title>DefinitionService&#45;&gt;EnhancedTextResultModule</title>
<path fill="none" stroke="#000000" d="M3411,-122.2228C3411,-142.3652 3411,-172 3411,-172 3411,-172 3527.6205,-172 3527.6205,-172"/>
<polygon fill="#000000" stroke="#000000" points="3527.6206,-175.5001 3537.6205,-172 3527.6205,-168.5001 3527.6206,-175.5001"/>
</g>
<!-- ImageComponent -->
<g id="node26" class="node">
<title>ImageComponent</title>
<polygon fill="#ffffb3" stroke="#000000" points="1030.3132,-122 913.6868,-122 913.6868,-86 1030.3132,-86 1030.3132,-122"/>
<text text-anchor="middle" x="972" y="-99.8" font-family="Times,serif" font-size="14.00" fill="#000000">ImageComponent</text>
</g>
<!-- ImageComponent&#45;&gt;ImageModule -->
<g id="edge21" class="edge">
<title>ImageComponent&#45;&gt;ImageModule</title>
<path fill="none" stroke="#000000" d="M972,-122.2228C972,-142.3652 972,-172 972,-172 972,-172 877.2605,-172 877.2605,-172"/>
<polygon fill="#000000" stroke="#000000" points="877.2606,-168.5001 867.2605,-172 877.2605,-175.5001 877.2606,-168.5001"/>
</g>
<!-- ImageRoutingModule -->
<g id="node28" class="node">
<title>ImageRoutingModule</title>
<polygon fill="#8dd3c7" stroke="#000000" points="889.6484,-122 886.6484,-126 865.6484,-126 862.6484,-122 750.3516,-122 750.3516,-86 889.6484,-86 889.6484,-122"/>
<text text-anchor="middle" x="820" y="-99.8" font-family="Times,serif" font-size="14.00" fill="#000000">ImageRoutingModule</text>
</g>
<!-- ImageRoutingModule&#45;&gt;ImageModule -->
<g id="edge22" class="edge">
<title>ImageRoutingModule&#45;&gt;ImageModule</title>
<path fill="none" stroke="#000000" d="M820,-122.2228C820,-122.2228 820,-143.7269 820,-143.7269"/>
<polygon fill="#000000" stroke="#000000" points="816.5001,-143.7269 820,-153.7269 823.5001,-143.727 816.5001,-143.7269"/>
</g>
<!-- LayoutComponent -->
<g id="node29" class="node">
<title>LayoutComponent</title>
<polygon fill="#ffffb3" stroke="#000000" points="4705.4902,-122 4584.5098,-122 4584.5098,-86 4705.4902,-86 4705.4902,-122"/>
<text text-anchor="middle" x="4645" y="-99.8" font-family="Times,serif" font-size="14.00" fill="#000000">LayoutComponent</text>
</g>
<!-- LayoutModule -->
<g id="node33" class="node">
<title>LayoutModule</title>
<polygon fill="#8dd3c7" stroke="#000000" points="4414.7078,-190 4411.7078,-194 4390.7078,-194 4387.7078,-190 4315.2922,-190 4315.2922,-154 4414.7078,-154 4414.7078,-190"/>
<text text-anchor="middle" x="4365" y="-167.8" font-family="Times,serif" font-size="14.00" fill="#000000">LayoutModule</text>
</g>
<!-- LayoutComponent&#45;&gt;LayoutModule -->
<g id="edge24" class="edge">
<title>LayoutComponent&#45;&gt;LayoutModule</title>
<path fill="none" stroke="#000000" d="M4645,-122.2921C4645,-144.2057 4645,-178 4645,-178 4645,-178 4424.7357,-178 4424.7357,-178"/>
<polygon fill="#000000" stroke="#000000" points="4424.7358,-174.5001 4414.7357,-178 4424.7357,-181.5001 4424.7358,-174.5001"/>
</g>
<!-- HeaderComponent -->
<g id="node30" class="node">
<title>HeaderComponent</title>
<polygon fill="#ffffb3" stroke="#000000" points="4566.7437,-122 4445.2563,-122 4445.2563,-86 4566.7437,-86 4566.7437,-122"/>
<text text-anchor="middle" x="4506" y="-99.8" font-family="Times,serif" font-size="14.00" fill="#000000">HeaderComponent</text>
</g>
<!-- HeaderComponent&#45;&gt;LayoutModule -->
<g id="edge25" class="edge">
<title>HeaderComponent&#45;&gt;LayoutModule</title>
<path fill="none" stroke="#000000" d="M4506,-122.2667C4506,-140.5552 4506,-166 4506,-166 4506,-166 4424.7113,-166 4424.7113,-166"/>
<polygon fill="#000000" stroke="#000000" points="4424.7114,-162.5001 4414.7113,-166 4424.7113,-169.5001 4424.7114,-162.5001"/>
</g>
<!-- SidebarComponent -->
<g id="node31" class="node">
<title>SidebarComponent</title>
<polygon fill="#ffffb3" stroke="#000000" points="4427.0954,-122 4302.9046,-122 4302.9046,-86 4427.0954,-86 4427.0954,-122"/>
<text text-anchor="middle" x="4365" y="-99.8" font-family="Times,serif" font-size="14.00" fill="#000000">SidebarComponent</text>
</g>
<!-- SidebarComponent&#45;&gt;LayoutModule -->
<g id="edge26" class="edge">
<title>SidebarComponent&#45;&gt;LayoutModule</title>
<path fill="none" stroke="#000000" d="M4365,-122.2228C4365,-122.2228 4365,-143.7269 4365,-143.7269"/>
<polygon fill="#000000" stroke="#000000" points="4361.5001,-143.7269 4365,-153.7269 4368.5001,-143.727 4361.5001,-143.7269"/>
</g>
<!-- FooterComponent -->
<g id="node32" class="node">
<title>FooterComponent</title>
<polygon fill="#ffffb3" stroke="#000000" points="4284.8809,-122 4167.1191,-122 4167.1191,-86 4284.8809,-86 4284.8809,-122"/>
<text text-anchor="middle" x="4226" y="-99.8" font-family="Times,serif" font-size="14.00" fill="#000000">FooterComponent</text>
</g>
<!-- FooterComponent&#45;&gt;LayoutModule -->
<g id="edge27" class="edge">
<title>FooterComponent&#45;&gt;LayoutModule</title>
<path fill="none" stroke="#000000" d="M4226,-122.2228C4226,-142.3652 4226,-172 4226,-172 4226,-172 4305.2104,-172 4305.2104,-172"/>
<polygon fill="#000000" stroke="#000000" points="4305.2105,-175.5001 4315.2104,-172 4305.2104,-168.5001 4305.2105,-175.5001"/>
</g>
<!-- LayoutRoutingModule -->
<g id="node34" class="node">
<title>LayoutRoutingModule</title>
<polygon fill="#8dd3c7" stroke="#000000" points="4143.3258,-122 4140.3258,-126 4119.3258,-126 4116.3258,-122 3998.6742,-122 3998.6742,-86 4143.3258,-86 4143.3258,-122"/>
<text text-anchor="middle" x="4071" y="-99.8" font-family="Times,serif" font-size="14.00" fill="#000000">LayoutRoutingModule</text>
</g>
<!-- LayoutRoutingModule&#45;&gt;LayoutModule -->
<g id="edge28" class="edge">
<title>LayoutRoutingModule&#45;&gt;LayoutModule</title>
<path fill="none" stroke="#000000" d="M4071,-122.2479C4071,-145.0179 4071,-181 4071,-181 4071,-181 4305.1269,-181 4305.1269,-181"/>
<polygon fill="#000000" stroke="#000000" points="4305.1269,-184.5001 4315.1269,-181 4305.1269,-177.5001 4305.1269,-184.5001"/>
</g>
<!-- LoginComponent -->
<g id="node35" class="node">
<title>LoginComponent</title>
<polygon fill="#ffffb3" stroke="#000000" points="5021.2758,-122 4906.7242,-122 4906.7242,-86 5021.2758,-86 5021.2758,-122"/>
<text text-anchor="middle" x="4964" y="-99.8" font-family="Times,serif" font-size="14.00" fill="#000000">LoginComponent</text>
</g>
<!-- LoginModule -->
<g id="node36" class="node">
<title>LoginModule</title>
<polygon fill="#8dd3c7" stroke="#000000" points="4935.493,-190 4932.493,-194 4911.493,-194 4908.493,-190 4842.507,-190 4842.507,-154 4935.493,-154 4935.493,-190"/>
<text text-anchor="middle" x="4889" y="-167.8" font-family="Times,serif" font-size="14.00" fill="#000000">LoginModule</text>
</g>
<!-- LoginComponent&#45;&gt;LoginModule -->
<g id="edge29" class="edge">
<title>LoginComponent&#45;&gt;LoginModule</title>
<path fill="none" stroke="#000000" d="M4921.0544,-122.2228C4921.0544,-122.2228 4921.0544,-143.7269 4921.0544,-143.7269"/>
<polygon fill="#000000" stroke="#000000" points="4917.5544,-143.7269 4921.0544,-153.7269 4924.5544,-143.727 4917.5544,-143.7269"/>
</g>
<!-- LoginRoutingModule -->
<g id="node37" class="node">
<title>LoginRoutingModule</title>
<polygon fill="#8dd3c7" stroke="#000000" points="4883.1108,-122 4880.1108,-126 4859.1108,-126 4856.1108,-122 4744.8892,-122 4744.8892,-86 4883.1108,-86 4883.1108,-122"/>
<text text-anchor="middle" x="4814" y="-99.8" font-family="Times,serif" font-size="14.00" fill="#000000">LoginRoutingModule</text>
</g>
<!-- LoginRoutingModule&#45;&gt;LoginModule -->
<g id="edge30" class="edge">
<title>LoginRoutingModule&#45;&gt;LoginModule</title>
<path fill="none" stroke="#000000" d="M4862.7795,-122.2228C4862.7795,-122.2228 4862.7795,-143.7269 4862.7795,-143.7269"/>
<polygon fill="#000000" stroke="#000000" points="4859.2795,-143.7269 4862.7795,-153.7269 4866.2795,-143.727 4859.2795,-143.7269"/>
</g>
<!-- NotFoundComponent -->
<g id="node38" class="node">
<title>NotFoundComponent</title>
<polygon fill="#ffffb3" stroke="#000000" points="5385.1122,-122 5246.8878,-122 5246.8878,-86 5385.1122,-86 5385.1122,-122"/>
<text text-anchor="middle" x="5316" y="-99.8" font-family="Times,serif" font-size="14.00" fill="#000000">NotFoundComponent</text>
</g>
<!-- NotFoundModule -->
<g id="node39" class="node">
<title>NotFoundModule</title>
<polygon fill="#8dd3c7" stroke="#000000" points="5287.3301,-190 5284.3301,-194 5263.3301,-194 5260.3301,-190 5170.6699,-190 5170.6699,-154 5287.3301,-154 5287.3301,-190"/>
<text text-anchor="middle" x="5229" y="-167.8" font-family="Times,serif" font-size="14.00" fill="#000000">NotFoundModule</text>
</g>
<!-- NotFoundComponent&#45;&gt;NotFoundModule -->
<g id="edge31" class="edge">
<title>NotFoundComponent&#45;&gt;NotFoundModule</title>
<path fill="none" stroke="#000000" d="M5267.0544,-122.2228C5267.0544,-122.2228 5267.0544,-143.7269 5267.0544,-143.7269"/>
<polygon fill="#000000" stroke="#000000" points="5263.5544,-143.7269 5267.0544,-153.7269 5270.5544,-143.727 5263.5544,-143.7269"/>
</g>
<!-- NotFoundRoutingModule -->
<g id="node40" class="node">
<title>NotFoundRoutingModule</title>
<polygon fill="#8dd3c7" stroke="#000000" points="5222.948,-122 5219.948,-126 5198.948,-126 5195.948,-122 5061.052,-122 5061.052,-86 5222.948,-86 5222.948,-122"/>
<text text-anchor="middle" x="5142" y="-99.8" font-family="Times,serif" font-size="14.00" fill="#000000">NotFoundRoutingModule</text>
</g>
<!-- NotFoundRoutingModule&#45;&gt;NotFoundModule -->
<g id="edge32" class="edge">
<title>NotFoundRoutingModule&#45;&gt;NotFoundModule</title>
<path fill="none" stroke="#000000" d="M5196.7795,-122.2228C5196.7795,-122.2228 5196.7795,-143.7269 5196.7795,-143.7269"/>
<polygon fill="#000000" stroke="#000000" points="5193.2795,-143.7269 5196.7795,-153.7269 5200.2795,-143.727 5193.2795,-143.7269"/>
</g>
<!-- PageHeaderComponent -->
<g id="node41" class="node">
<title>PageHeaderComponent</title>
<polygon fill="#ffffb3" stroke="#000000" points="5575.4552,-122 5426.5448,-122 5426.5448,-86 5575.4552,-86 5575.4552,-122"/>
<text text-anchor="middle" x="5501" y="-99.8" font-family="Times,serif" font-size="14.00" fill="#000000">PageHeaderComponent</text>
</g>
<!-- PageHeaderModule -->
<g id="node42" class="node">
<title>PageHeaderModule</title>
<polygon fill="#8dd3c7" stroke="#000000" points="5564.6727,-190 5561.6727,-194 5540.6727,-194 5537.6727,-190 5437.3273,-190 5437.3273,-154 5564.6727,-154 5564.6727,-190"/>
<text text-anchor="middle" x="5501" y="-167.8" font-family="Times,serif" font-size="14.00" fill="#000000">PageHeaderModule</text>
</g>
<!-- PageHeaderComponent&#45;&gt;PageHeaderModule -->
<g id="edge33" class="edge">
<title>PageHeaderComponent&#45;&gt;PageHeaderModule</title>
<path fill="none" stroke="#000000" d="M5501,-122.2228C5501,-122.2228 5501,-143.7269 5501,-143.7269"/>
<polygon fill="#000000" stroke="#000000" points="5497.5001,-143.7269 5501,-153.7269 5504.5001,-143.727 5497.5001,-143.7269"/>
</g>
<!-- PageHeaderComponent  -->
<g id="node43" class="node">
<title>PageHeaderComponent </title>
<polygon fill="#fb8072" stroke="#000000" points="5577.4559,-258 5424.5441,-258 5424.5441,-222 5577.4559,-222 5577.4559,-258"/>
<text text-anchor="middle" x="5501" y="-235.8" font-family="Times,serif" font-size="14.00" fill="#000000">PageHeaderComponent </text>
</g>
<!-- PageHeaderModule&#45;&gt;PageHeaderComponent  -->
<g id="edge34" class="edge">
<title>PageHeaderModule&#45;&gt;PageHeaderComponent </title>
<path fill="none" stroke="#000000" stroke-dasharray="5,2" d="M5501,-190.2228C5501,-190.2228 5501,-211.7269 5501,-211.7269"/>
<polygon fill="#000000" stroke="#000000" points="5497.5001,-211.7269 5501,-221.7269 5504.5001,-211.727 5497.5001,-211.7269"/>
</g>
<!-- PdfComponent -->
<g id="node44" class="node">
<title>PdfComponent</title>
<polygon fill="#ffffb3" stroke="#000000" points="1318.2758,-122 1217.7242,-122 1217.7242,-86 1318.2758,-86 1318.2758,-122"/>
<text text-anchor="middle" x="1268" y="-99.8" font-family="Times,serif" font-size="14.00" fill="#000000">PdfComponent</text>
</g>
<!-- PdfComponent&#45;&gt;PdfModule -->
<g id="edge35" class="edge">
<title>PdfComponent&#45;&gt;PdfModule</title>
<path fill="none" stroke="#000000" d="M1268,-122.2228C1268,-142.3652 1268,-172 1268,-172 1268,-172 1181.7024,-172 1181.7024,-172"/>
<polygon fill="#000000" stroke="#000000" points="1181.7025,-168.5001 1171.7024,-172 1181.7024,-175.5001 1181.7025,-168.5001"/>
</g>
<!-- PdfRoutingModule -->
<g id="node46" class="node">
<title>PdfRoutingModule</title>
<polygon fill="#8dd3c7" stroke="#000000" points="1194.1108,-122 1191.1108,-126 1170.1108,-126 1167.1108,-122 1069.8892,-122 1069.8892,-86 1194.1108,-86 1194.1108,-122"/>
<text text-anchor="middle" x="1132" y="-99.8" font-family="Times,serif" font-size="14.00" fill="#000000">PdfRoutingModule</text>
</g>
<!-- PdfRoutingModule&#45;&gt;PdfModule -->
<g id="edge36" class="edge">
<title>PdfRoutingModule&#45;&gt;PdfModule</title>
<path fill="none" stroke="#000000" d="M1145.1655,-122.2228C1145.1655,-122.2228 1145.1655,-143.7269 1145.1655,-143.7269"/>
<polygon fill="#000000" stroke="#000000" points="1141.6656,-143.7269 1145.1655,-153.7269 1148.6656,-143.727 1141.6656,-143.7269"/>
</g>
<!-- StatComponent -->
<g id="node47" class="node">
<title>StatComponent</title>
<polygon fill="#ffffb3" stroke="#000000" points="2734.6109,-190 2631.3891,-190 2631.3891,-154 2734.6109,-154 2734.6109,-190"/>
<text text-anchor="middle" x="2683" y="-167.8" font-family="Times,serif" font-size="14.00" fill="#000000">StatComponent</text>
</g>
<!-- StatComponent&#45;&gt;StatModule -->
<g id="edge38" class="edge">
<title>StatComponent&#45;&gt;StatModule</title>
<path fill="none" stroke="#000000" d="M2683,-153.7772C2683,-133.6348 2683,-104 2683,-104 2683,-104 2470.8052,-104 2470.8052,-104"/>
<polygon fill="#000000" stroke="#000000" points="2470.8052,-100.5001 2460.8052,-104 2470.8052,-107.5001 2470.8052,-100.5001"/>
</g>
<!-- TextComponent -->
<g id="node49" class="node">
<title>TextComponent</title>
<polygon fill="#ffffb3" stroke="#000000" points="1618.4902,-122 1511.5098,-122 1511.5098,-86 1618.4902,-86 1618.4902,-122"/>
<text text-anchor="middle" x="1565" y="-99.8" font-family="Times,serif" font-size="14.00" fill="#000000">TextComponent</text>
</g>
<!-- TextComponent&#45;&gt;TextModule -->
<g id="edge40" class="edge">
<title>TextComponent&#45;&gt;TextModule</title>
<path fill="none" stroke="#000000" d="M1565,-122.2228C1565,-142.3652 1565,-172 1565,-172 1565,-172 1475.6047,-172 1475.6047,-172"/>
<polygon fill="#000000" stroke="#000000" points="1475.6047,-168.5001 1465.6047,-172 1475.6046,-175.5001 1475.6047,-168.5001"/>
</g>
<!-- TextRoutingModule -->
<g id="node51" class="node">
<title>TextRoutingModule</title>
<polygon fill="#8dd3c7" stroke="#000000" points="1488.3258,-122 1485.3258,-126 1464.3258,-126 1461.3258,-122 1357.6742,-122 1357.6742,-86 1488.3258,-86 1488.3258,-122"/>
<text text-anchor="middle" x="1423" y="-99.8" font-family="Times,serif" font-size="14.00" fill="#000000">TextRoutingModule</text>
</g>
<!-- TextRoutingModule&#45;&gt;TextModule -->
<g id="edge41" class="edge">
<title>TextRoutingModule&#45;&gt;TextModule</title>
<path fill="none" stroke="#000000" d="M1437.2013,-122.2228C1437.2013,-122.2228 1437.2013,-143.7269 1437.2013,-143.7269"/>
<polygon fill="#000000" stroke="#000000" points="1433.7014,-143.7269 1437.2013,-153.7269 1440.7014,-143.727 1433.7014,-143.7269"/>
</g>
<!-- TextStatisticsComponent -->
<g id="node52" class="node">
<title>TextStatisticsComponent</title>
<polygon fill="#ffffb3" stroke="#000000" points="5978.5449,-122 5821.4551,-122 5821.4551,-86 5978.5449,-86 5978.5449,-122"/>
<text text-anchor="middle" x="5900" y="-99.8" font-family="Times,serif" font-size="14.00" fill="#000000">TextStatisticsComponent</text>
</g>
<!-- TextStatisticsModule -->
<g id="node53" class="node">
<title>TextStatisticsModule</title>
<polygon fill="#8dd3c7" stroke="#000000" points="5870.7618,-190 5867.7618,-194 5846.7618,-194 5843.7618,-190 5735.2382,-190 5735.2382,-154 5870.7618,-154 5870.7618,-190"/>
<text text-anchor="middle" x="5803" y="-167.8" font-family="Times,serif" font-size="14.00" fill="#000000">TextStatisticsModule</text>
</g>
<!-- TextStatisticsComponent&#45;&gt;TextStatisticsModule -->
<g id="edge43" class="edge">
<title>TextStatisticsComponent&#45;&gt;TextStatisticsModule</title>
<path fill="none" stroke="#000000" d="M5846.0544,-122.2228C5846.0544,-122.2228 5846.0544,-143.7269 5846.0544,-143.7269"/>
<polygon fill="#000000" stroke="#000000" points="5842.5544,-143.7269 5846.0544,-153.7269 5849.5544,-143.727 5842.5544,-143.7269"/>
</g>
<!-- TextStatisticsRoutingModule -->
<g id="node54" class="node">
<title>TextStatisticsRoutingModule</title>
<polygon fill="#8dd3c7" stroke="#000000" points="5797.3794,-122 5794.3794,-126 5773.3794,-126 5770.3794,-122 5616.6206,-122 5616.6206,-86 5797.3794,-86 5797.3794,-122"/>
<text text-anchor="middle" x="5707" y="-99.8" font-family="Times,serif" font-size="14.00" fill="#000000">TextStatisticsRoutingModule</text>
</g>
<!-- TextStatisticsRoutingModule&#45;&gt;TextStatisticsModule -->
<g id="edge44" class="edge">
<title>TextStatisticsRoutingModule&#45;&gt;TextStatisticsModule</title>
<path fill="none" stroke="#000000" d="M5766.2795,-122.2228C5766.2795,-122.2228 5766.2795,-143.7269 5766.2795,-143.7269"/>
<polygon fill="#000000" stroke="#000000" points="5762.7795,-143.7269 5766.2795,-153.7269 5769.7795,-143.727 5762.7795,-143.7269"/>
</g>
</g>
</svg>
